<?xml version="1.0" encoding="UTF-8" standalone="no"?>
<svg
   xmlns:dc="http://purl.org/dc/elements/1.1/"
   xmlns:cc="http://creativecommons.org/ns#"
   xmlns:rdf="http://www.w3.org/1999/02/22-rdf-syntax-ns#"
   xmlns:svg="http://www.w3.org/2000/svg"
   xmlns="http://www.w3.org/2000/svg"
   xmlns:sodipodi="http://sodipodi.sourceforge.net/DTD/sodipodi-0.dtd"
   xmlns:inkscape="http://www.inkscape.org/namespaces/inkscape"
   width="100%"
   height="100%"
   viewBox="0 0 86 86"
   version="1.1"
   xml:space="preserve"
   style="fill-rule:evenodd;clip-rule:evenodd;stroke-linejoin:round;stroke-miterlimit:1.41421;"
   id="svg21"
   sodipodi:docname="harbour-tekstitv.svg"
   inkscape:version="0.92.4 (unknown)"
   inkscape:export-filename="/home/jni/projects/sailfish/harbour-yletekstitv/harbour-yletekstitv/icons/172x172/harbour-yletekstitv.png"
   inkscape:export-xdpi="192"
   inkscape:export-ydpi="192"><metadata
   id="metadata25"><rdf:RDF><cc:Work
       rdf:about=""><dc:format>image/svg+xml</dc:format><dc:type
         rdf:resource="http://purl.org/dc/dcmitype/StillImage" /><dc:title></dc:title></cc:Work></rdf:RDF></metadata><sodipodi:namedview
   pagecolor="#ffffff"
   bordercolor="#666666"
   borderopacity="1"
   objecttolerance="10"
   gridtolerance="10"
   guidetolerance="10"
   inkscape:pageopacity="0"
   inkscape:pageshadow="2"
   inkscape:window-width="1874"
   inkscape:window-height="1051"
   id="namedview23"
   showgrid="true"
   inkscape:zoom="7.7617302"
   inkscape:cx="37.713186"
   inkscape:cy="44.72694"
   inkscape:window-x="46"
   inkscape:window-y="0"
   inkscape:window-maximized="1"
   inkscape:current-layer="svg21"><inkscape:grid
     type="xygrid"
     id="grid832" /></sodipodi:namedview>
    <path
   d="M 85.9,1.53 V 43 C 85.9,66.693 66.692,85.9 43,85.9 H 1.53 C 0.74,85.9 0.1,85.26 0.1,84.47 V 43 C 0.1,19.306 19.308,0.1 43,0.1 h 41.47 c 0.79,0 1.43,0.64 1.43,1.43 z"
   style="fill:url(#_Linear1);fill-rule:nonzero"
   id="path2"
   inkscape:connector-curvature="0" />
    <g
   transform="matrix(-0.755245,0,0,0.755245,74.9755,11.0245)"
   id="g6"
   style="fill:#bbbcba;fill-opacity:0.74876845">
        <path
   d="M 0.1,1.53 V 43 c 0,23.693 19.208,42.9 42.9,42.9 h 41.47 c 0.79,0 1.43,-0.64 1.43,-1.43 V 43 C 85.9,19.306 66.692,0.1 43,0.1 H 1.53 C 0.74,0.1 0.1,0.74 0.1,1.53 Z"
   style="fill:#bbbcba;fill-rule:nonzero;fill-opacity:0.74876845"
   id="path4"
   inkscape:connector-curvature="0" />
    </g>
    
    <defs
   id="defs19">
        <linearGradient
   id="_Linear1"
   x1="0"
   y1="0"
   x2="1"
   y2="0"
   gradientUnits="userSpaceOnUse"
   gradientTransform="matrix(84.9623,-84.9623,-84.9623,-84.9623,0.5189,85.4812)"><stop
     offset="0"
     style="stop-color:#66cf13;stop-opacity:1"
     id="stop12" /><stop
     offset="0.5009594"
     style="stop-color:#326a8b;stop-opacity:1"
     id="stop14" /><stop
     offset="1"
     style="stop-color:#323f92;stop-opacity:0.67980295"
     id="stop16" /></linearGradient>
    </defs>
<rect
   style="opacity:1;fill:#323f92;fill-opacity:0.3103448;stroke:#000000;stroke-width:2;stroke-linecap:round;stroke-linejoin:round;stroke-miterlimit:2;stroke-dasharray:none;stroke-opacity:1;paint-order:normal"
   id="rect2313"
   width="40"
   height="30"
   x="23"
   y="29"
   ry="3"
   rx="3" /><path
   style="opacity:1;fill:#323f92;fill-opacity:0.3103448;stroke:#000000;stroke-width:2;stroke-linecap:round;stroke-linejoin:round;stroke-miterlimit:2;stroke-dasharray:none;stroke-opacity:1;paint-order:normal"
   id="path2335"
   sodipodi:type="arc"
   sodipodi:cx="43"
   sodipodi:cy="29"
   sodipodi:rx="5"
   sodipodi:ry="5"
   sodipodi:start="3.1415927"
   sodipodi:end="0"
   d="m 38,29 a 5,5 0 0 1 5,-5 5,5 0 0 1 5,5 h -5 z" /><path
   style="fill:none;stroke:#000000;stroke-width:1px;stroke-linecap:butt;stroke-linejoin:miter;stroke-opacity:1"
   d="M 43,24 38,19"
   id="path2337"
   inkscape:connector-curvature="0" /><path
   style="fill:none;stroke:#000000;stroke-width:1px;stroke-linecap:butt;stroke-linejoin:miter;stroke-opacity:1"
   d="m 43,24 5,-5"
   id="path2339"
   inkscape:connector-curvature="0" /><path
   style="fill:none;stroke:#000000;stroke-width:1px;stroke-linecap:butt;stroke-linejoin:miter;stroke-opacity:1"
   d="m 53,59 5,10"
   id="path2343"
   inkscape:connector-curvature="0" /><path
   style="fill:none;stroke:#000000;stroke-width:1px;stroke-linecap:butt;stroke-linejoin:miter;stroke-opacity:1"
   d="M 33,59 28,69"
   id="path2345"
   inkscape:connector-curvature="0" /><text
   xml:space="preserve"
   style="font-style:normal;font-variant:normal;font-weight:normal;font-stretch:normal;font-size:10.66666698px;line-height:1.25;font-family:sans-serif;-inkscape-font-specification:sans-serif;letter-spacing:0px;word-spacing:0px;fill:#000000;fill-opacity:1;stroke:none"
   x="26.215359"
   y="47.858128"
   id="text2349"><tspan
     sodipodi:role="line"
     id="tspan2347"
     x="26.215359"
     y="47.858128"
     style="font-style:normal;font-variant:normal;font-weight:bold;font-stretch:normal;font-size:16px;font-family:sans-serif;-inkscape-font-specification:'sans-serif Bold'">TXT</tspan></text>
<path
   style="fill:none;stroke:#000000;stroke-width:1px;stroke-linecap:butt;stroke-linejoin:miter;stroke-opacity:1"
   d="M 23,56 H 63"
   id="path2351"
   inkscape:connector-curvature="0" /><path
   style="opacity:1;fill:#ff0000;fill-opacity:0.3103448;stroke:#000000;stroke-width:2;stroke-linecap:round;stroke-linejoin:round;stroke-miterlimit:2;stroke-dasharray:none;stroke-opacity:1;paint-order:normal"
   d="m 25.13323,57.711135 c -0.246599,-0.123896 -0.583957,-0.428184 -0.749683,-0.676196 l -0.301322,-0.45093 18.84015,-0.03264 c 10.362083,-0.01795 18.870281,-0.0025 18.907108,0.03432 0.109134,0.109133 -0.421814,0.748877 -0.880755,1.061229 L 60.5228,57.9368 43.052197,57.936594 C 26.676523,57.936401 25.553492,57.922276 25.13323,57.711129 Z"
   id="path2353"
   inkscape:connector-curvature="0" /><path
   style="opacity:1;fill:#ff0000;fill-opacity:0.96551723;stroke:#ff0000;stroke-width:1;stroke-linecap:round;stroke-linejoin:round;stroke-miterlimit:2;stroke-dasharray:none;stroke-opacity:0.97044337;paint-order:normal"
   id="path2357"
   sodipodi:type="arc"
   sodipodi:cx="60.415382"
   sodipodi:cy="57.618156"
   sodipodi:rx="0.34220165"
   sodipodi:ry="0.27619591"
   sodipodi:start="0"
   sodipodi:end="6.2208928"
   d="m 60.757584,57.618156 a 0.34220165,0.27619591 0 0 1 -0.336873,0.276163 0.34220165,0.27619591 0 0 1 -0.347364,-0.267561 0.34220165,0.27619591 0 0 1 0.326054,-0.284496 0.34220165,0.27619591 0 0 1 0.357519,0.258701 l -0.341538,0.01719 z" /></svg>